# xmcd
#
# Track frame offsets: 
#        150
#        24601
#        56436
#        107839
#        142844
#        163833
#        190792
#        211621
#        264403
#
# Disc length: 3689 seconds
#
# Revision: 1
# Processed by: cddbd v1.5.2PL0 Copyright (c) Steve Scherf et al.
# Submitted via: ExactAudioCopy v0.99pb5
#
DISCID=730e6709
DTITLE=Kiyoshi Kitagawa - Prayer
DYEAR=2006
DGENRE=Jazz
TTITLE0=Guess What
TTITLE1=Back Stage Sally
TTITLE2=Prayer
TTITLE3=Catch and Release
TTITLE4=Etude in Theree
TTITLE5=Evidence
TTITLE6=Oleo
TTITLE7=Lonely Woman
TTITLE8=A Place to Remember
EXTD=YEAR: 2006
EXTT0=
EXTT1=
EXTT2=
EXTT3=
EXTT4=
EXTT5=
EXTT6=
EXTT7=
EXTT8=
PLAYORDER=
